<?xml version="1.0" encoding="utf-8"?>
<!-- Generator: Adobe Illustrator 18.0.0, SVG Export Plug-In . SVG Version: 6.00 Build 0)  -->
<!DOCTYPE svg PUBLIC "-//W3C//DTD SVG 1.1//EN" "http://www.w3.org/Graphics/SVG/1.1/DTD/svg11.dtd">
<svg version="1.1" id="Layer_1" xmlns="http://www.w3.org/2000/svg" xmlns:xlink="http://www.w3.org/1999/xlink" x="0px" y="0px"
	 viewBox="178 178 144 144" enable-background="new 178 178 144 144" xml:space="preserve">
<title>tools-icon</title>
<desc>Created with Sketch.</desc>
<g>
	<path fill="#0D83D0" d="M306,289.9c0.1,1.6-0.4,3.1-1.4,4.2c-1.1,1.2-2.7,1.9-4.6,1.9h-39.7l0,0c0,0,0,0-0.1,0h0h0l0,0
		c-1.6,0-3.1-0.6-4.3-1.8c-1.2-1.2-1.8-2.8-1.9-4.5l0,0c0-3.1,2.1-5.7,5-6.1c0.4-2.6,2.7-4.7,5.5-5.2c0.2-1,0.7-2,1.5-2.9
		c1.1-1.2,2.7-1.8,4.3-1.8c2.1,0,3.9,1.1,4.8,2.8c1.1-4,4.8-7,9.2-7c4.8,0,8.8,3.6,9.5,8.2c2.4-1.8,5.6-1.6,8,0.6l-0.3-0.2
		c1.9,1.6,2.6,3.7,2.5,5.4c-0.1,1.1-0.4,2-1,2.7c0.6,0.2,1.1,0.6,1.6,1c0.7,0.7,1.1,1.5,1.3,2.4l0,0C306,289.8,306,289.8,306,289.9
		C306,289.8,306,289.8,306,289.9z M309,274.9c-1.4-1.9-3.5-3.3-5.8-3.9c-0.5-0.1-1.1,0.2-1.2,0.7c-0.2,0.5,0.1,1.2,0.7,1.3
		c2.3,0.6,4.3,2.2,5.4,4.4c0.9,1.8,1.1,3.8,0.6,5.7c-0.1,0.5,0.3,1.1,0.8,1.2c0.5,0.2,1.1-0.2,1.2-0.6
		C311.5,280.8,310.9,277.4,309,274.9z M302.4,274.6c-0.8-0.2-1.4,0.8-1.1,1.5c0.1,0.3,0.4,0.5,0.7,0.6c1.2,0.3,2.3,1.1,2.8,2.3
		c0.5,1,0.6,2.1,0.3,3.2c-0.2,0.5,0.2,1.1,0.8,1.2c0.5,0.2,1.1-0.2,1.2-0.7c0.5-1.9,0.1-4-1-5.6C305.3,275.9,304,274.9,302.4,274.6z
		"/>
	<path fill="#0D83D1" d="M285.1,245.6v-48.3c0-12.4-27.2-19.1-52.9-19.1c-25.6,0-52.9,6.7-52.9,19.1v88.6
		c0,12.4,27.2,19.1,52.9,19.1c6,0,12.1-0.4,18-1.1c6.7,11,18.9,18.3,32.6,18.3c21.1,0,38.3-17.2,38.3-38.3
		C321.1,263.5,305.2,246.8,285.1,245.6z M197.2,187.5c6.6-2.2,18-4.8,35.1-4.8c17.1,0,28.5,2.6,35.1,4.8c4,1.3,13.3,5,13.3,9.8
		c0,4.8-9.3,8.5-13.3,9.8c-6.6,2.2-18,4.8-35.1,4.8c-17.1,0-28.5-2.6-35.1-4.8c-4-1.3-13.3-5-13.3-9.8
		C183.9,192.4,193.2,188.8,197.2,187.5z M183.9,205.6l3,1.8c9.3,5.6,26.7,9,45.4,9c18.7,0,36.1-3.5,45.4-9l3-1.8v21.2
		c0,4.8-9.3,8.5-13.3,9.8c-6.6,2.2-18,4.8-35.1,4.8c-17.1,0-28.5-2.6-35.1-4.8c-4-1.3-13.3-5-13.3-9.8V205.6z M183.9,235.1l3,1.8
		c9.3,5.6,26.7,9,45.4,9s36.1-3.5,45.4-9l3-1.8v10.5c-15.3,0.9-28.3,10.9-33.5,24.6c-4.4,0.4-9.3,0.7-14.8,0.7
		c-17.1,0-28.5-2.6-35.1-4.8c-4-1.3-13.3-5-13.3-9.8V235.1z M232.2,300.4c-17.1,0-28.5-2.6-35.1-4.8c-4-1.3-13.3-5-13.3-9.8v-21.2
		l3,1.8c9.3,5.6,26.7,9,45.4,9c4.6,0,9.1-0.2,13.4-0.6c-0.7,2.9-1.1,5.9-1.1,9c0,5.6,1.2,11,3.4,15.8
		C243.4,300.1,238.1,300.4,232.2,300.4z M282.8,318.3c-6,0-11.9-1.6-17.1-4.5c-5-2.9-9.3-7-12.3-11.9l-1.1-1.8l-0.9-2
		c-2-4.5-3.1-9.3-3.1-14.2c0-2.7,0.3-5.4,1-8.1l0.5-2.1l0.8-2c4.8-12.6,16.7-21.3,30.2-22.1l2-0.1l2,0.1
		c18.2,1.1,32.4,16.2,32.4,34.4C317.3,302.8,301.8,318.3,282.8,318.3z"/>
</g>
</svg>
