<?xml version="1.0" encoding="UTF-8" standalone="no"?>
<!-- Created with Inkscape (http://www.inkscape.org/) -->

<svg
   xmlns:dc="http://purl.org/dc/elements/1.1/"
   xmlns:cc="http://creativecommons.org/ns#"
   xmlns:rdf="http://www.w3.org/1999/02/22-rdf-syntax-ns#"
   xmlns:svg="http://www.w3.org/2000/svg"
   xmlns="http://www.w3.org/2000/svg"
   xmlns:xlink="http://www.w3.org/1999/xlink"
   xmlns:sodipodi="http://sodipodi.sourceforge.net/DTD/sodipodi-0.dtd"
   xmlns:inkscape="http://www.inkscape.org/namespaces/inkscape"
   width="650"
   height="650"
   viewBox="0 0 171.97916 171.97917"
   version="1.1"
   id="svg4599"
   inkscape:version="0.92.4 (5da689c313, 2019-01-14)"
   sodipodi:docname="Lora.svg">
  <defs
     id="defs4593">
    <clipPath
       id="SVGID_2_">
      <use
         height="100%"
         width="100%"
         y="0"
         x="0"
         style="overflow:visible"
         xlink:href="#SVGID_1_"
         overflow="visible"
         id="use53" />
    </clipPath>
    <clipPath
       id="clipPath4558">
      <use
         height="100%"
         width="100%"
         y="0"
         x="0"
         style="overflow:visible"
         xlink:href="#SVGID_1_"
         overflow="visible"
         id="use4556" />
    </clipPath>
    <rect
       id="SVGID_1_"
       x="106.091"
       y="17"
       width="137.81799"
       height="120.001" />
    <defs
       id="defs51">
      <rect
         height="120.001"
         width="137.81799"
         y="17"
         x="106.091"
         id="rect5210" />
    </defs>
    <clipPath
       id="clipPath4586">
      <use
         id="use4584"
         overflow="visible"
         xlink:href="#SVGID_1_"
         style="overflow:visible"
         x="0"
         y="0"
         width="100%"
         height="100%" />
    </clipPath>
  </defs>
  <sodipodi:namedview
     id="base"
     pagecolor="#ffffff"
     bordercolor="#666666"
     borderopacity="1.0"
     inkscape:pageopacity="0.0"
     inkscape:pageshadow="2"
     inkscape:zoom="0.98994949"
     inkscape:cx="308.41214"
     inkscape:cy="402.15601"
     inkscape:document-units="mm"
     inkscape:current-layer="g64"
     showgrid="false"
     units="px"
     inkscape:window-width="1920"
     inkscape:window-height="1001"
     inkscape:window-x="-9"
     inkscape:window-y="-9"
     inkscape:window-maximized="1" />
  <metadata
     id="metadata4596">
    <rdf:RDF>
      <cc:Work
         rdf:about="">
        <dc:format>image/svg+xml</dc:format>
        <dc:type
           rdf:resource="http://purl.org/dc/dcmitype/StillImage" />
        <dc:title></dc:title>
      </cc:Work>
    </rdf:RDF>
  </metadata>
  <g
     inkscape:label="Ebene 1"
     inkscape:groupmode="layer"
     id="layer1"
     transform="translate(0,-125.02082)">
    <g
       transform="matrix(1.2478858,0,0,1.2479306,-132.38945,114.9185)"
       id="g64">
      <polygon
         style="fill:#1d1d1b"
         points="138.783,28.999 138.783,49.501 148.927,49.501 148.927,54.971 132.292,54.971 132.292,28.999 "
         id="polygon18" />
      <path
         style="fill:#1d1d1b"
         inkscape:connector-curvature="0"
         d="m 181.933,33.813 v 7.005 h 5.945 c 2.315,0 3.469,-1.168 3.469,-3.501 0,-2.334 -1.156,-3.503 -3.469,-3.503 h -5.945 z m -6.491,21.158 V 28.999 h 12.986 c 6.27,0 9.409,2.846 9.409,8.535 0,1.68 -0.488,3.145 -1.458,4.397 -0.97,1.25 -2.273,2.122 -3.904,2.609 l 5.946,10.433 h -7.257 l -5.105,-9.337 h -4.124 v 9.337 h -6.493"
         id="path20" />
      <path
         style="fill:#1d1d1b"
         inkscape:connector-curvature="0"
         d="m 212.484,46.873 v -1.348 l -3.831,1.093 c -1.822,0.51 -2.733,1.35 -2.733,2.519 0,1.456 0.883,2.185 2.663,2.185 1.165,0 2.11,-0.382 2.823,-1.146 0.72,-0.768 1.078,-1.868 1.078,-3.303 m 5.472,-6.202 v 10.251 c 0,1.825 0.167,3.175 0.51,4.05 h -5.254 c -0.192,-0.606 -0.313,-1.279 -0.361,-2.008 h -0.074 c -0.462,0.729 -1.303,1.338 -2.519,1.827 -1.12,0.462 -2.225,0.692 -3.317,0.692 -1.92,0 -3.469,-0.5 -4.631,-1.497 -1.244,-1.046 -1.865,-2.468 -1.865,-4.269 0,-2.21 0.886,-3.891 2.666,-5.03 1.506,-0.976 3.94,-1.694 7.294,-2.153 l 2.079,-0.292 v -1.606 c 0,-1.388 -0.897,-2.077 -2.696,-2.077 -0.928,0 -1.616,0.196 -2.079,0.581 -0.462,0.392 -0.764,1.058 -0.914,2.008 h -5.472 c 0.118,-4.06 2.784,-6.091 7.99,-6.091 2.843,0 4.95,0.389 6.307,1.165 1.56,0.899 2.336,2.383 2.336,4.449"
         id="path22" />
      <path
         style="fill:#1d1d1b"
         inkscape:connector-curvature="0"
         d="m 161.295,39.394 c -1.559,0 -2.735,0.563 -3.537,1.688 -0.729,1.028 -1.096,2.423 -1.096,4.184 0,1.763 0.367,3.156 1.096,4.184 0.805,1.127 1.979,1.686 3.537,1.686 3.092,0 4.634,-2.03 4.634,-6.089 0,-1.666 -0.368,-2.999 -1.096,-4.002 -0.824,-1.1 -2.004,-1.651 -3.538,-1.651 m 0,-4.341 c 3.092,0 5.584,0.901 7.479,2.696 1.899,1.801 2.842,4.306 2.842,7.517 0,3.21 -0.941,5.713 -2.842,7.512 -1.895,1.801 -4.387,2.699 -7.479,2.699 -3.091,0 -5.583,-0.898 -7.477,-2.699 -1.899,-1.799 -2.846,-4.302 -2.846,-7.512 0,-3.211 0.945,-5.716 2.846,-7.517 1.893,-1.794 4.386,-2.696 7.477,-2.696"
         id="path24" />
      <path
         style="fill:#009fe3"
         inkscape:connector-curvature="0"
         d="m 161.111,31.165 c 2.837,0 5.48,0.836 7.701,2.269 l 1.116,-1.586 c -2.539,-1.656 -5.566,-2.622 -8.817,-2.622 -3.111,0 -6.018,0.883 -8.487,2.41 l 1.11,1.591 c 2.154,-1.308 4.68,-2.062 7.377,-2.062"
         id="path26" />
      <path
         style="fill:#009fe3"
         inkscape:connector-curvature="0"
         d="m 149.169,26.689 1.48,2.121 c 3.03,-1.919 6.618,-3.039 10.464,-3.039 3.989,0 7.701,1.202 10.799,3.258 l 1.489,-2.118 c -3.521,-2.353 -7.748,-3.726 -12.291,-3.726 -4.393,0.003 -8.489,1.292 -11.941,3.504"
         id="path28" />
      <path
         style="fill:#009fe3"
         inkscape:connector-curvature="0"
         d="m 161.114,20.233 c 5.175,0 9.989,1.57 13.997,4.25 l 1.861,-2.646 C 172.436,18.785 166.978,17 161.114,17 c -5.712,0 -11.033,1.696 -15.495,4.603 l 1.851,2.652 c 3.938,-2.539 8.619,-4.022 13.644,-4.022"
         id="path30" />
      <path
         style="fill:#009fe3"
         inkscape:connector-curvature="0"
         d="m 161.48,59.426 c -2.838,0 -5.479,-0.836 -7.703,-2.271 l -1.116,1.586 c 2.542,1.659 5.568,2.623 8.819,2.623 3.11,0 6.019,-0.884 8.49,-2.409 l -1.112,-1.593 c -2.153,1.31 -4.681,2.064 -7.378,2.064"
         id="path32" />
      <path
         style="fill:#009fe3"
         inkscape:connector-curvature="0"
         d="m 173.421,63.904 -1.479,-2.123 c -3.029,1.919 -6.615,3.037 -10.461,3.037 -3.989,0 -7.702,-1.199 -10.8,-3.255 l -1.49,2.115 c 3.521,2.354 7.748,3.727 12.292,3.727 4.392,0 8.488,-1.29 11.938,-3.501"
         id="path34" />
      <path
         style="fill:#009fe3"
         inkscape:connector-curvature="0"
         d="m 161.48,70.357 c -5.176,0 -9.991,-1.566 -14,-4.248 l -1.861,2.646 c 4.536,3.052 9.994,4.837 15.861,4.837 5.711,0 11.03,-1.695 15.495,-4.603 l -1.853,-2.651 c -3.936,2.538 -8.619,4.019 -13.642,4.019"
         id="path36" />
      <path
         style="fill:#1d1d1b"
         inkscape:connector-curvature="0"
         d="m 221.242,32.732 h 0.739 l 0.681,1.757 0.669,-1.757 h 0.738 v 2.602 h -0.474 v -1.989 h -0.013 l -0.733,1.989 h -0.387 l -0.733,-1.989 h -0.012 v 1.989 h -0.477 v -2.602 z m -1.887,0.437 h -0.8 v -0.437 h 2.076 v 0.437 h -0.801 v 2.165 h -0.475 z"
         id="path62" />
    </g>
  </g>
</svg>
