<?xml version="1.0" encoding="UTF-8" standalone="no"?>
<!-- Created with Inkscape (http://www.inkscape.org/) -->

<svg
   xmlns:dc="http://purl.org/dc/elements/1.1/"
   xmlns:cc="http://creativecommons.org/ns#"
   xmlns:rdf="http://www.w3.org/1999/02/22-rdf-syntax-ns#"
   xmlns:svg="http://www.w3.org/2000/svg"
   xmlns="http://www.w3.org/2000/svg"
   xmlns:xlink="http://www.w3.org/1999/xlink"
   xmlns:sodipodi="http://sodipodi.sourceforge.net/DTD/sodipodi-0.dtd"
   xmlns:inkscape="http://www.inkscape.org/namespaces/inkscape"
   width="650"
   height="650"
   viewBox="0 0 171.97916 171.97917"
   version="1.1"
   id="svg4599"
   inkscape:version="0.92.1 r15371"
   sodipodi:docname="Lora_Alliance_Member_vertical.svg">
  <defs
     id="defs4593">
    <clipPath
       id="SVGID_2_">
      <use
         height="100%"
         width="100%"
         y="0"
         x="0"
         style="overflow:visible"
         xlink:href="#SVGID_1_"
         overflow="visible"
         id="use53" />
    </clipPath>
    <clipPath
       id="clipPath4558">
      <use
         height="100%"
         width="100%"
         y="0"
         x="0"
         style="overflow:visible"
         xlink:href="#SVGID_1_"
         overflow="visible"
         id="use4556" />
    </clipPath>
    <rect
       id="SVGID_1_"
       x="106.091"
       y="17"
       width="137.81799"
       height="120.001" />
    <defs
       id="defs51">
      <rect
         height="120.001"
         width="137.81799"
         y="17"
         x="106.091"
         id="rect5210" />
    </defs>
    <clipPath
       id="clipPath4586">
      <use
         id="use4584"
         overflow="visible"
         xlink:href="#SVGID_1_"
         style="overflow:visible"
         x="0"
         y="0"
         width="100%"
         height="100%" />
    </clipPath>
  </defs>
  <sodipodi:namedview
     id="base"
     pagecolor="#ffffff"
     bordercolor="#666666"
     borderopacity="1.0"
     inkscape:pageopacity="0.0"
     inkscape:pageshadow="2"
     inkscape:zoom="0.98994949"
     inkscape:cx="305.38168"
     inkscape:cy="402.15601"
     inkscape:document-units="mm"
     inkscape:current-layer="g64"
     showgrid="false"
     units="px"
     inkscape:window-width="1920"
     inkscape:window-height="1017"
     inkscape:window-x="4472"
     inkscape:window-y="165"
     inkscape:window-maximized="1" />
  <metadata
     id="metadata4596">
    <rdf:RDF>
      <cc:Work
         rdf:about="">
        <dc:format>image/svg+xml</dc:format>
        <dc:type
           rdf:resource="http://purl.org/dc/dcmitype/StillImage" />
        <dc:title></dc:title>
      </cc:Work>
    </rdf:RDF>
  </metadata>
  <g
     inkscape:label="Ebene 1"
     inkscape:groupmode="layer"
     id="layer1"
     transform="translate(0,-125.02082)">
    <g
       transform="matrix(1.2478858,0,0,1.2479306,-132.38945,114.9185)"
       id="g64">
      <path
         style="fill:#7c7c7b"
         inkscape:connector-curvature="0"
         d="m 115.125,136.596 v -24.602 h 4.9 l 5.823,17.421 c 0.537,1.622 0.928,2.836 1.173,3.64 0.279,-0.894 0.716,-2.208 1.309,-3.941 l 5.891,-17.119 h 4.38 v 24.602 h -3.138 v -20.591 l -7.149,20.591 h -2.937 l -7.117,-20.944 v 20.944 h -3.135 z"
         id="path6" />
      <path
         style="fill:#7c7c7b"
         inkscape:connector-curvature="0"
         d="m 145.751,125.973 h 9.953 c -0.136,-1.499 -0.515,-2.623 -1.142,-3.374 -0.962,-1.165 -2.208,-1.744 -3.742,-1.744 -1.388,0 -2.555,0.462 -3.499,1.393 -0.946,0.928 -1.47,2.17 -1.57,3.725 z m 9.918,4.885 3.121,0.385 c -0.492,1.825 -1.403,3.239 -2.734,4.248 -1.332,1.005 -3.033,1.51 -5.102,1.51 -2.607,0 -4.674,-0.805 -6.2,-2.41 -1.528,-1.604 -2.292,-3.857 -2.292,-6.753 0,-3 0.773,-5.328 2.316,-6.982 1.543,-1.656 3.546,-2.485 6.007,-2.485 2.383,0 4.33,0.812 5.84,2.434 1.511,1.622 2.266,3.905 2.266,6.847 0,0.179 -0.005,0.448 -0.016,0.805 h -13.292 c 0.111,1.959 0.666,3.459 1.66,4.499 0.996,1.04 2.24,1.56 3.726,1.56 1.109,0 2.053,-0.291 2.836,-0.873 0.784,-0.584 1.405,-1.511 1.864,-2.785 z"
         id="path8" />
      <path
         style="fill:#7c7c7b"
         inkscape:connector-curvature="0"
         d="m 162.583,136.596 v -17.823 h 2.702 v 2.5 c 0.562,-0.873 1.305,-1.576 2.232,-2.105 0.932,-0.532 1.986,-0.798 3.172,-0.798 1.32,0 2.403,0.273 3.248,0.822 0.845,0.547 1.44,1.314 1.788,2.298 1.409,-2.08 3.245,-3.121 5.505,-3.121 1.768,0 3.127,0.491 4.078,1.469 0.951,0.979 1.427,2.486 1.427,4.523 v 12.234 h -3.007 v -11.226 c 0,-1.209 -0.096,-2.079 -0.293,-2.612 -0.194,-0.529 -0.55,-0.959 -1.063,-1.283 -0.513,-0.325 -1.12,-0.487 -1.813,-0.487 -1.252,0 -2.293,0.417 -3.123,1.251 -0.826,0.833 -1.241,2.167 -1.241,4.001 v 10.354 h -3.021 v -11.58 c 0,-1.343 -0.246,-2.35 -0.738,-3.021 -0.492,-0.671 -1.296,-1.007 -2.417,-1.007 -0.851,0 -1.636,0.224 -2.358,0.671 -0.721,0.45 -1.244,1.103 -1.569,1.963 -0.326,0.862 -0.488,2.104 -0.488,3.726 v 9.246 h -3.021 z"
         id="path10" />
      <path
         style="fill:#7c7c7b"
         inkscape:connector-curvature="0"
         d="m 193.965,127.551 c 0,2.135 0.291,3.681 0.872,4.631 0.951,1.555 2.24,2.333 3.861,2.333 1.317,0 2.459,-0.573 3.421,-1.719 0.961,-1.146 1.444,-2.856 1.444,-5.128 0,-2.327 -0.459,-4.044 -1.385,-5.151 -0.922,-1.108 -2.039,-1.66 -3.348,-1.66 -1.32,0 -2.459,0.571 -3.424,1.719 -0.962,1.146 -1.441,2.804 -1.441,4.975 z m 0.034,9.045 h -2.801 v -24.602 h 3.021 v 8.776 c 1.275,-1.598 2.902,-2.398 4.882,-2.398 1.097,0 2.135,0.22 3.114,0.663 0.979,0.443 1.783,1.062 2.417,1.863 0.632,0.801 1.125,1.766 1.484,2.894 0.358,1.131 0.539,2.338 0.539,3.627 0,3.052 -0.756,5.414 -2.268,7.08 -1.509,1.668 -3.323,2.503 -5.438,2.503 -2.101,0 -3.754,-0.88 -4.95,-2.637 z"
         id="path12" />
      <path
         style="fill:#7c7c7b"
         inkscape:connector-curvature="0"
         d="m 212.608,125.973 h 9.954 c -0.136,-1.499 -0.514,-2.623 -1.143,-3.374 -0.962,-1.165 -2.208,-1.744 -3.743,-1.744 -1.388,0 -2.553,0.462 -3.498,1.393 -0.947,0.928 -1.468,2.17 -1.57,3.725 z m 9.92,4.885 3.12,0.385 c -0.494,1.825 -1.405,3.239 -2.736,4.248 -1.332,1.005 -3.032,1.51 -5.103,1.51 -2.606,0 -4.673,-0.805 -6.199,-2.41 -1.529,-1.604 -2.29,-3.857 -2.29,-6.753 0,-3 0.77,-5.328 2.315,-6.982 1.543,-1.656 3.545,-2.485 6.008,-2.485 2.383,0 4.329,0.812 5.838,2.434 1.512,1.622 2.268,3.905 2.268,6.847 0,0.179 -0.006,0.448 -0.017,0.805 h -13.293 c 0.113,1.959 0.666,3.459 1.662,4.499 0.996,1.04 2.239,1.56 3.726,1.56 1.108,0 2.053,-0.291 2.837,-0.873 0.784,-0.582 1.404,-1.511 1.864,-2.785 z"
         id="path14" />
      <path
         style="fill:#7c7c7b"
         inkscape:connector-curvature="0"
         d="m 229.407,136.596 v -17.823 h 2.719 v 2.702 c 0.694,-1.262 1.334,-2.097 1.921,-2.5 0.589,-0.402 1.235,-0.604 1.938,-0.604 1.018,0 2.053,0.326 3.105,0.974 l -1.041,2.801 c -0.739,-0.436 -1.475,-0.654 -2.214,-0.654 -0.66,0 -1.252,0.2 -1.78,0.595 -0.524,0.397 -0.9,0.949 -1.123,1.656 -0.335,1.073 -0.505,2.248 -0.505,3.522 v 9.331 z"
         id="path16" />
      <polygon
         style="fill:#1d1d1b"
         points="138.783,28.999 138.783,49.501 148.927,49.501 148.927,54.971 132.292,54.971 132.292,28.999 "
         id="polygon18" />
      <path
         style="fill:#1d1d1b"
         inkscape:connector-curvature="0"
         d="m 181.933,33.813 v 7.005 h 5.945 c 2.315,0 3.469,-1.168 3.469,-3.501 0,-2.334 -1.156,-3.503 -3.469,-3.503 h -5.945 z m -6.491,21.158 V 28.999 h 12.986 c 6.27,0 9.409,2.846 9.409,8.535 0,1.68 -0.488,3.145 -1.458,4.397 -0.97,1.25 -2.273,2.122 -3.904,2.609 l 5.946,10.433 h -7.257 l -5.105,-9.337 h -4.124 v 9.337 h -6.493"
         id="path20" />
      <path
         style="fill:#1d1d1b"
         inkscape:connector-curvature="0"
         d="m 212.484,46.873 v -1.348 l -3.831,1.093 c -1.822,0.51 -2.733,1.35 -2.733,2.519 0,1.456 0.883,2.185 2.663,2.185 1.165,0 2.11,-0.382 2.823,-1.146 0.72,-0.768 1.078,-1.868 1.078,-3.303 m 5.472,-6.202 v 10.251 c 0,1.825 0.167,3.175 0.51,4.05 h -5.254 c -0.192,-0.606 -0.313,-1.279 -0.361,-2.008 h -0.074 c -0.462,0.729 -1.303,1.338 -2.519,1.827 -1.12,0.462 -2.225,0.692 -3.317,0.692 -1.92,0 -3.469,-0.5 -4.631,-1.497 -1.244,-1.046 -1.865,-2.468 -1.865,-4.269 0,-2.21 0.886,-3.891 2.666,-5.03 1.506,-0.976 3.94,-1.694 7.294,-2.153 l 2.079,-0.292 v -1.606 c 0,-1.388 -0.897,-2.077 -2.696,-2.077 -0.928,0 -1.616,0.196 -2.079,0.581 -0.462,0.392 -0.764,1.058 -0.914,2.008 h -5.472 c 0.118,-4.06 2.784,-6.091 7.99,-6.091 2.843,0 4.95,0.389 6.307,1.165 1.56,0.899 2.336,2.383 2.336,4.449"
         id="path22" />
      <path
         style="fill:#1d1d1b"
         inkscape:connector-curvature="0"
         d="m 161.295,39.394 c -1.559,0 -2.735,0.563 -3.537,1.688 -0.729,1.028 -1.096,2.423 -1.096,4.184 0,1.763 0.367,3.156 1.096,4.184 0.805,1.127 1.979,1.686 3.537,1.686 3.092,0 4.634,-2.03 4.634,-6.089 0,-1.666 -0.368,-2.999 -1.096,-4.002 -0.824,-1.1 -2.004,-1.651 -3.538,-1.651 m 0,-4.341 c 3.092,0 5.584,0.901 7.479,2.696 1.899,1.801 2.842,4.306 2.842,7.517 0,3.21 -0.941,5.713 -2.842,7.512 -1.895,1.801 -4.387,2.699 -7.479,2.699 -3.091,0 -5.583,-0.898 -7.477,-2.699 -1.899,-1.799 -2.846,-4.302 -2.846,-7.512 0,-3.211 0.945,-5.716 2.846,-7.517 1.893,-1.794 4.386,-2.696 7.477,-2.696"
         id="path24" />
      <path
         style="fill:#009fe3"
         inkscape:connector-curvature="0"
         d="m 161.111,31.165 c 2.837,0 5.48,0.836 7.701,2.269 l 1.116,-1.586 c -2.539,-1.656 -5.566,-2.622 -8.817,-2.622 -3.111,0 -6.018,0.883 -8.487,2.41 l 1.11,1.591 c 2.154,-1.308 4.68,-2.062 7.377,-2.062"
         id="path26" />
      <path
         style="fill:#009fe3"
         inkscape:connector-curvature="0"
         d="m 149.169,26.689 1.48,2.121 c 3.03,-1.919 6.618,-3.039 10.464,-3.039 3.989,0 7.701,1.202 10.799,3.258 l 1.489,-2.118 c -3.521,-2.353 -7.748,-3.726 -12.291,-3.726 -4.393,0.003 -8.489,1.292 -11.941,3.504"
         id="path28" />
      <path
         style="fill:#009fe3"
         inkscape:connector-curvature="0"
         d="m 161.114,20.233 c 5.175,0 9.989,1.57 13.997,4.25 l 1.861,-2.646 C 172.436,18.785 166.978,17 161.114,17 c -5.712,0 -11.033,1.696 -15.495,4.603 l 1.851,2.652 c 3.938,-2.539 8.619,-4.022 13.644,-4.022"
         id="path30" />
      <path
         style="fill:#009fe3"
         inkscape:connector-curvature="0"
         d="m 161.48,59.426 c -2.838,0 -5.479,-0.836 -7.703,-2.271 l -1.116,1.586 c 2.542,1.659 5.568,2.623 8.819,2.623 3.11,0 6.019,-0.884 8.49,-2.409 l -1.112,-1.593 c -2.153,1.31 -4.681,2.064 -7.378,2.064"
         id="path32" />
      <path
         style="fill:#009fe3"
         inkscape:connector-curvature="0"
         d="m 173.421,63.904 -1.479,-2.123 c -3.029,1.919 -6.615,3.037 -10.461,3.037 -3.989,0 -7.702,-1.199 -10.8,-3.255 l -1.49,2.115 c 3.521,2.354 7.748,3.727 12.292,3.727 4.392,0 8.488,-1.29 11.938,-3.501"
         id="path34" />
      <path
         style="fill:#009fe3"
         inkscape:connector-curvature="0"
         d="m 161.48,70.357 c -5.176,0 -9.991,-1.566 -14,-4.248 l -1.861,2.646 c 4.536,3.052 9.994,4.837 15.861,4.837 5.711,0 11.03,-1.695 15.495,-4.603 l -1.853,-2.651 c -3.936,2.538 -8.619,4.019 -13.642,4.019"
         id="path36" />
      <path
         style="fill:#1d1d1b"
         inkscape:connector-curvature="0"
         d="m 122.033,89.618 -3.477,-9.963 -3.41,9.963 z m 9.383,10.623 h -5.543 l -2.202,-6.099 h -10.09 l -2.084,6.099 h -5.406 l 9.833,-26.852 h 5.388 z"
         id="path38" />
      <polygon
         style="fill:#1d1d1b"
         points="132.875,100.241 132.875,73.389 138.226,73.389 138.226,100.241 "
         id="polygon40" />
      <path
         style="fill:#1d1d1b"
         inkscape:connector-curvature="0"
         d="m 143.442,75.952 v 24.29 h 5.346 V 78.49 c -1.857,-0.699 -3.653,-1.547 -5.346,-2.538 z"
         id="path42" />
      <path
         style="fill:#1d1d1b"
         inkscape:connector-curvature="0"
         d="M 153.886,80.004 154,100.241 h 5.356 V 80.745 c -1.868,-0.104 -3.694,-0.366 -5.47,-0.741 z"
         id="path44" />
      <path
         style="fill:#1d1d1b"
         inkscape:connector-curvature="0"
         d="m 175.735,90.9 c -0.686,0.222 -1.773,0.482 -3.26,0.789 -1.485,0.306 -2.456,0.604 -2.917,0.898 -0.694,0.476 -1.044,1.081 -1.044,1.813 0,0.721 0.278,1.344 0.837,1.869 0.559,0.526 1.269,0.787 2.134,0.787 0.964,0 1.886,-0.305 2.761,-0.915 0.647,-0.464 1.074,-1.032 1.276,-1.702 0.141,-0.441 0.212,-1.279 0.212,-2.51 V 90.9 Z m -7.163,-4.176 -4.858,-0.842 c 0.548,-1.881 1.486,-3.273 2.821,-4.177 1.332,-0.902 3.313,-1.355 5.94,-1.355 2.388,0 4.167,0.272 5.334,0.815 1.168,0.544 1.989,1.234 2.465,2.069 0.479,0.838 0.713,2.374 0.713,4.609 l -0.053,6.007 c 0,1.709 0.084,2.97 0.256,3.782 0.169,0.811 0.494,1.683 0.962,2.609 h -5.294 c -0.144,-0.341 -0.313,-0.847 -0.516,-1.52 -0.09,-0.303 -0.149,-0.508 -0.189,-0.604 -0.915,0.854 -1.895,1.496 -2.934,1.923 -1.042,0.426 -2.154,0.639 -3.336,0.639 -2.081,0 -3.724,-0.543 -4.923,-1.63 -1.199,-1.086 -1.799,-2.459 -1.799,-4.121 0,-1.1 0.272,-2.079 0.818,-2.94 0.547,-0.862 1.31,-1.521 2.297,-1.979 0.983,-0.457 2.403,-0.857 4.254,-1.199 2.501,-0.451 4.236,-0.872 5.203,-1.265 v -0.512 c 0,-0.989 -0.254,-1.695 -0.764,-2.115 -0.507,-0.422 -1.465,-0.632 -2.875,-0.632 -0.951,0 -1.696,0.18 -2.229,0.54 -0.531,0.361 -0.964,0.994 -1.293,1.898 z"
         id="path46" />
      <path
         style="fill:#1d1d1b"
         inkscape:connector-curvature="0"
         d="m 203.501,100.241 h -5.356 v -9.928 c 0,-2.099 -0.113,-3.458 -0.341,-4.074 -0.229,-0.615 -0.598,-1.096 -1.114,-1.437 -0.51,-0.34 -1.134,-0.512 -1.856,-0.512 -0.928,0 -1.76,0.244 -2.496,0.732 -0.735,0.49 -1.241,1.135 -1.515,1.942 -0.273,0.808 -0.409,2.297 -0.409,4.471 v 8.81 h -5.353 V 80.793 h 4.969 v 2.857 c 1.769,-2.196 3.991,-3.296 6.668,-3.296 1.182,0 2.262,0.205 3.238,0.615 0.979,0.409 1.718,0.929 2.22,1.565 0.502,0.633 0.852,1.354 1.049,2.16 0.197,0.807 0.296,1.959 0.296,3.461 z"
         id="path48" />
      <path
         id="path56"
         d="m 224.539,86.541 -5.276,0.917 c -0.179,-1.013 -0.582,-1.775 -1.211,-2.287 -0.629,-0.515 -1.444,-0.77 -2.448,-0.77 -1.331,0 -2.395,0.441 -3.19,1.328 -0.792,0.886 -1.188,2.365 -1.188,4.439 0,2.31 0.401,3.939 1.208,4.892 0.807,0.952 1.89,1.429 3.249,1.429 1.016,0 1.845,-0.278 2.497,-0.833 0.645,-0.554 1.104,-1.512 1.37,-2.867 l 5.258,0.863 c -0.547,2.318 -1.594,4.071 -3.142,5.256 -1.551,1.186 -3.627,1.775 -6.228,1.775 -2.962,0 -5.32,-0.896 -7.08,-2.69 -1.757,-1.795 -2.637,-4.279 -2.637,-7.455 0,-3.212 0.883,-5.713 2.648,-7.501 1.765,-1.788 4.152,-2.683 7.164,-2.683 2.462,0 4.422,0.511 5.875,1.53 1.453,1.016 2.496,2.57 3.131,4.657 z"
         clip-path="url(#SVGID_2_)"
         inkscape:connector-curvature="0"
         style="fill:#1d1d1b" />
      <path
         id="path58"
         d="m 238.585,88.85 c -0.034,-1.489 -0.437,-2.623 -1.196,-3.399 -0.765,-0.775 -1.692,-1.163 -2.784,-1.163 -1.17,0 -2.135,0.407 -2.894,1.227 -0.764,0.818 -1.14,1.929 -1.128,3.335 z m -0.302,5.2 5.333,0.862 c -0.686,1.883 -1.769,3.314 -3.249,4.295 -1.478,0.983 -3.328,1.474 -5.551,1.474 -3.52,0 -6.12,-1.104 -7.81,-3.316 -1.334,-1.77 -2.002,-4.003 -2.002,-6.703 0,-3.225 0.877,-5.748 2.628,-7.574 1.754,-1.825 3.969,-2.739 6.648,-2.739 3.012,0 5.384,0.956 7.127,2.866 1.74,1.912 2.569,4.843 2.496,8.784 h -13.411 c 0.04,1.526 0.468,2.713 1.294,3.562 0.824,0.849 1.853,1.272 3.085,1.272 0.841,0 1.543,-0.217 2.116,-0.659 0.571,-0.437 1.003,-1.146 1.296,-2.124 z"
         clip-path="url(#SVGID_2_)"
         inkscape:connector-curvature="0"
         style="fill:#1d1d1b" />
      <path
         style="fill:#1d1d1b"
         inkscape:connector-curvature="0"
         d="m 221.242,32.732 h 0.739 l 0.681,1.757 0.669,-1.757 h 0.738 v 2.602 h -0.474 v -1.989 h -0.013 l -0.733,1.989 h -0.387 l -0.733,-1.989 h -0.012 v 1.989 h -0.477 v -2.602 z m -1.887,0.437 h -0.8 v -0.437 h 2.076 v 0.437 h -0.801 v 2.165 h -0.475 z"
         id="path62" />
    </g>
  </g>
</svg>
